<mxfile host="app.diagrams.net" agent="Mozilla/5.0 (Windows NT 10.0; Win64; x64) AppleWebKit/537.36 (KHTML, like Gecko) Chrome/133.0.0.0 Safari/537.36" version="25.0.3">
  <diagram id="DUZGZFK_U-hFwTo6LEYj" name="Page-1">
    <mxGraphModel dx="2524" dy="738" grid="1" gridSize="10" guides="1" tooltips="1" connect="1" arrows="1" fold="1" page="1" pageScale="1" pageWidth="850" pageHeight="1100" math="0" shadow="0">
      <root>
        <mxCell id="0" />
        <mxCell id="1" parent="0" />
        <mxCell id="qpOQSkXpNRgJ7rWEM79H-92" value="INSTRUMENT" style="rounded=0;whiteSpace=wrap;html=1;fillColor=#f5f5f5;strokeColor=#666666;fontColor=#333333;" parent="1" vertex="1">
          <mxGeometry x="450" y="280" width="120" height="60" as="geometry" />
        </mxCell>
        <mxCell id="qpOQSkXpNRgJ7rWEM79H-93" value="&lt;u&gt;instrument_id&lt;/u&gt;" style="ellipse;whiteSpace=wrap;html=1;strokeWidth=1;" parent="1" vertex="1">
          <mxGeometry x="370" y="200" width="80" height="40" as="geometry" />
        </mxCell>
        <mxCell id="qpOQSkXpNRgJ7rWEM79H-94" value="" style="endArrow=none;html=1;" parent="1" source="qpOQSkXpNRgJ7rWEM79H-92" target="qpOQSkXpNRgJ7rWEM79H-93" edge="1">
          <mxGeometry width="50" height="50" relative="1" as="geometry">
            <mxPoint x="780" y="250" as="sourcePoint" />
            <mxPoint x="830" y="200" as="targetPoint" />
          </mxGeometry>
        </mxCell>
        <mxCell id="qpOQSkXpNRgJ7rWEM79H-95" value="name" style="ellipse;whiteSpace=wrap;html=1;strokeWidth=1;" parent="1" vertex="1">
          <mxGeometry x="465" y="180" width="80" height="40" as="geometry" />
        </mxCell>
        <mxCell id="qpOQSkXpNRgJ7rWEM79H-96" value="" style="endArrow=none;html=1;" parent="1" source="qpOQSkXpNRgJ7rWEM79H-92" target="qpOQSkXpNRgJ7rWEM79H-95" edge="1">
          <mxGeometry width="50" height="50" relative="1" as="geometry">
            <mxPoint x="400" y="276.1576923076922" as="sourcePoint" />
            <mxPoint x="950" y="413.85" as="targetPoint" />
          </mxGeometry>
        </mxCell>
        <mxCell id="qpOQSkXpNRgJ7rWEM79H-103" value="TEACHER" style="rounded=0;whiteSpace=wrap;html=1;fillColor=#f5f5f5;strokeColor=#666666;fontColor=#333333;" parent="1" vertex="1">
          <mxGeometry x="450" y="630" width="120" height="60" as="geometry" />
        </mxCell>
        <mxCell id="qpOQSkXpNRgJ7rWEM79H-104" value="&lt;u&gt;&lt;font style=&quot;font-size: 14px;&quot;&gt;teacher_id&lt;/font&gt;&lt;/u&gt;" style="ellipse;whiteSpace=wrap;html=1;strokeWidth=1;" parent="1" vertex="1">
          <mxGeometry x="340" y="710" width="80" height="40" as="geometry" />
        </mxCell>
        <mxCell id="qpOQSkXpNRgJ7rWEM79H-105" value="" style="endArrow=none;html=1;" parent="1" source="qpOQSkXpNRgJ7rWEM79H-103" target="qpOQSkXpNRgJ7rWEM79H-104" edge="1">
          <mxGeometry width="50" height="50" relative="1" as="geometry">
            <mxPoint x="780" y="600" as="sourcePoint" />
            <mxPoint x="830" y="550" as="targetPoint" />
          </mxGeometry>
        </mxCell>
        <mxCell id="qpOQSkXpNRgJ7rWEM79H-106" value="&lt;font style=&quot;font-size: 14px;&quot;&gt;hours_per_week&lt;/font&gt;" style="ellipse;whiteSpace=wrap;html=1;strokeWidth=1;" parent="1" vertex="1">
          <mxGeometry x="420" y="740" width="80" height="40" as="geometry" />
        </mxCell>
        <mxCell id="qpOQSkXpNRgJ7rWEM79H-107" value="" style="endArrow=none;html=1;" parent="1" source="qpOQSkXpNRgJ7rWEM79H-103" target="qpOQSkXpNRgJ7rWEM79H-106" edge="1">
          <mxGeometry width="50" height="50" relative="1" as="geometry">
            <mxPoint x="400" y="626.1576923076922" as="sourcePoint" />
            <mxPoint x="950" y="763.85" as="targetPoint" />
          </mxGeometry>
        </mxCell>
        <mxCell id="qpOQSkXpNRgJ7rWEM79H-108" value="" style="endArrow=none;html=1;" parent="1" source="qpOQSkXpNRgJ7rWEM79H-103" target="qpOQSkXpNRgJ7rWEM79H-109" edge="1">
          <mxGeometry width="50" height="50" relative="1" as="geometry">
            <mxPoint x="499.9964603512942" y="670" as="sourcePoint" />
            <mxPoint x="1057.0100000000002" y="763.85" as="targetPoint" />
          </mxGeometry>
        </mxCell>
        <mxCell id="qpOQSkXpNRgJ7rWEM79H-109" value="address" style="ellipse;whiteSpace=wrap;html=1;strokeWidth=1;" parent="1" vertex="1">
          <mxGeometry x="530" y="740" width="80" height="40" as="geometry" />
        </mxCell>
        <mxCell id="qpOQSkXpNRgJ7rWEM79H-110" value="name" style="ellipse;whiteSpace=wrap;html=1;strokeWidth=1;" parent="1" vertex="1">
          <mxGeometry x="630" y="710" width="80" height="40" as="geometry" />
        </mxCell>
        <mxCell id="qpOQSkXpNRgJ7rWEM79H-111" value="" style="endArrow=none;html=1;exitX=1;exitY=1;exitDx=0;exitDy=0;entryX=0.5;entryY=0;entryDx=0;entryDy=0;" parent="1" source="qpOQSkXpNRgJ7rWEM79H-103" target="qpOQSkXpNRgJ7rWEM79H-110" edge="1">
          <mxGeometry width="50" height="50" relative="1" as="geometry">
            <mxPoint x="547.8463367507443" y="640" as="sourcePoint" />
            <mxPoint x="642.4137931034325" y="614.482758620698" as="targetPoint" />
          </mxGeometry>
        </mxCell>
        <mxCell id="qpOQSkXpNRgJ7rWEM79H-112" value="type" style="ellipse;whiteSpace=wrap;html=1;strokeWidth=1;" parent="1" vertex="1">
          <mxGeometry x="560" y="180" width="80" height="40" as="geometry" />
        </mxCell>
        <mxCell id="qpOQSkXpNRgJ7rWEM79H-113" value="" style="endArrow=none;html=1;" parent="1" source="qpOQSkXpNRgJ7rWEM79H-92" target="qpOQSkXpNRgJ7rWEM79H-112" edge="1">
          <mxGeometry width="50" height="50" relative="1" as="geometry">
            <mxPoint x="683.5897541225299" y="290" as="sourcePoint" />
            <mxPoint x="1125" y="423.85" as="targetPoint" />
          </mxGeometry>
        </mxCell>
        <mxCell id="qpOQSkXpNRgJ7rWEM79H-114" value="desc" style="ellipse;whiteSpace=wrap;html=1;strokeWidth=1;" parent="1" vertex="1">
          <mxGeometry x="630" y="240" width="80" height="40" as="geometry" />
        </mxCell>
        <mxCell id="qpOQSkXpNRgJ7rWEM79H-115" value="" style="endArrow=none;html=1;entryX=-0.004;entryY=0.683;entryDx=0;entryDy=0;exitX=1;exitY=0.5;exitDx=0;exitDy=0;entryPerimeter=0;" parent="1" source="qpOQSkXpNRgJ7rWEM79H-92" target="qpOQSkXpNRgJ7rWEM79H-114" edge="1">
          <mxGeometry width="50" height="50" relative="1" as="geometry">
            <mxPoint x="653.5897541225299" y="340" as="sourcePoint" />
            <mxPoint x="785" y="290" as="targetPoint" />
          </mxGeometry>
        </mxCell>
        <mxCell id="qpOQSkXpNRgJ7rWEM79H-116" value="PLAYS" style="shape=rhombus;strokeWidth=1;fontSize=17;perimeter=rhombusPerimeter;whiteSpace=wrap;html=1;align=center;fontSize=14;fillColor=#f5f5f5;strokeColor=#666666;fontColor=#333333;" parent="1" vertex="1">
          <mxGeometry x="250" y="260" width="100" height="100" as="geometry" />
        </mxCell>
        <mxCell id="qpOQSkXpNRgJ7rWEM79H-119" value="" style="shape=link;html=1;jettySize=auto;orthogonalLoop=1;entryX=0;entryY=0.5;entryDx=0;entryDy=0;" parent="1" target="qpOQSkXpNRgJ7rWEM79H-116" edge="1">
          <mxGeometry width="50" height="50" relative="1" as="geometry">
            <mxPoint x="110" y="309.47" as="sourcePoint" />
            <mxPoint x="190" y="309.47" as="targetPoint" />
          </mxGeometry>
        </mxCell>
        <mxCell id="qpOQSkXpNRgJ7rWEM79H-123" value="N" style="edgeLabel;html=1;align=center;verticalAlign=middle;resizable=0;points=[];fontSize=22;" parent="qpOQSkXpNRgJ7rWEM79H-119" connectable="0" vertex="1">
          <mxGeometry x="0.2884" y="-2" relative="1" as="geometry">
            <mxPoint x="-21" y="-2" as="offset" />
          </mxGeometry>
        </mxCell>
        <mxCell id="qpOQSkXpNRgJ7rWEM79H-121" value="" style="endArrow=none;html=1;entryX=0;entryY=0.5;entryDx=0;entryDy=0;" parent="1" target="qpOQSkXpNRgJ7rWEM79H-92" edge="1">
          <mxGeometry width="50" height="50" relative="1" as="geometry">
            <mxPoint x="350" y="310" as="sourcePoint" />
            <mxPoint x="430" y="310" as="targetPoint" />
          </mxGeometry>
        </mxCell>
        <mxCell id="qpOQSkXpNRgJ7rWEM79H-122" value="M" style="edgeLabel;html=1;align=center;verticalAlign=middle;resizable=0;points=[];fontSize=22;" parent="qpOQSkXpNRgJ7rWEM79H-121" connectable="0" vertex="1">
          <mxGeometry x="0.3193" y="-3" relative="1" as="geometry">
            <mxPoint x="-16" y="-3" as="offset" />
          </mxGeometry>
        </mxCell>
        <mxCell id="qpOQSkXpNRgJ7rWEM79H-124" value="TAUGHT BY" style="shape=rhombus;strokeWidth=1;fontSize=17;perimeter=rhombusPerimeter;whiteSpace=wrap;html=1;align=center;fontSize=14;fillColor=#f5f5f5;strokeColor=#666666;fontColor=#333333;" parent="1" vertex="1">
          <mxGeometry x="460" y="430" width="100" height="100" as="geometry" />
        </mxCell>
        <mxCell id="qpOQSkXpNRgJ7rWEM79H-125" value="" style="shape=link;html=1;jettySize=auto;orthogonalLoop=1;entryX=0.5;entryY=0;entryDx=0;entryDy=0;exitX=0.5;exitY=1;exitDx=0;exitDy=0;" parent="1" source="qpOQSkXpNRgJ7rWEM79H-124" target="qpOQSkXpNRgJ7rWEM79H-103" edge="1">
          <mxGeometry width="50" height="50" relative="1" as="geometry">
            <mxPoint x="440" y="570" as="sourcePoint" />
            <mxPoint x="580" y="570.53" as="targetPoint" />
          </mxGeometry>
        </mxCell>
        <mxCell id="qpOQSkXpNRgJ7rWEM79H-129" value="M" style="edgeLabel;html=1;align=center;verticalAlign=middle;resizable=0;points=[];fontSize=22;" parent="qpOQSkXpNRgJ7rWEM79H-125" connectable="0" vertex="1">
          <mxGeometry x="-0.7201" relative="1" as="geometry">
            <mxPoint y="26" as="offset" />
          </mxGeometry>
        </mxCell>
        <mxCell id="qpOQSkXpNRgJ7rWEM79H-127" value="" style="endArrow=none;html=1;entryX=0.5;entryY=1;entryDx=0;entryDy=0;" parent="1" source="qpOQSkXpNRgJ7rWEM79H-124" target="qpOQSkXpNRgJ7rWEM79H-92" edge="1">
          <mxGeometry width="50" height="50" relative="1" as="geometry">
            <mxPoint x="320" y="400" as="sourcePoint" />
            <mxPoint x="420" y="400" as="targetPoint" />
          </mxGeometry>
        </mxCell>
        <mxCell id="qpOQSkXpNRgJ7rWEM79H-130" value="N" style="edgeLabel;html=1;align=center;verticalAlign=middle;resizable=0;points=[];fontSize=22;" parent="qpOQSkXpNRgJ7rWEM79H-127" connectable="0" vertex="1">
          <mxGeometry x="0.3498" relative="1" as="geometry">
            <mxPoint y="21" as="offset" />
          </mxGeometry>
        </mxCell>
        <mxCell id="P3mDU5Xm8J3g0fUVJNvG-26" value="" style="shape=link;html=1;jettySize=auto;orthogonalLoop=1;exitX=0.5;exitY=1;exitDx=0;exitDy=0;entryX=0.5;entryY=0;entryDx=0;entryDy=0;" parent="1" source="P3mDU5Xm8J3g0fUVJNvG-27" target="P3mDU5Xm8J3g0fUVJNvG-45" edge="1">
          <mxGeometry x="-458.27" y="-114.98000000000002" width="50" height="50" as="geometry">
            <mxPoint x="-400.00149284022973" y="303.751" as="sourcePoint" />
            <mxPoint x="-400" y="377" as="targetPoint" />
            <Array as="points" />
          </mxGeometry>
        </mxCell>
        <mxCell id="P3mDU5Xm8J3g0fUVJNvG-27" value="Classic" style="rounded=0;whiteSpace=wrap;html=1;fillColor=#f5f5f5;strokeColor=#666666;fontColor=#333333;" parent="1" vertex="1">
          <mxGeometry x="-448.2610215356863" y="240" width="105.5361371067764" height="57.00000000000001" as="geometry" />
        </mxCell>
        <mxCell id="P3mDU5Xm8J3g0fUVJNvG-28" value="age appropriateness" style="ellipse;whiteSpace=wrap;html=1;strokeWidth=1;" parent="1" vertex="1">
          <mxGeometry x="-610" y="202" width="122.03" height="38" as="geometry" />
        </mxCell>
        <mxCell id="P3mDU5Xm8J3g0fUVJNvG-29" value="" style="endArrow=none;html=1;" parent="1" source="P3mDU5Xm8J3g0fUVJNvG-28" target="P3mDU5Xm8J3g0fUVJNvG-27" edge="1">
          <mxGeometry x="-481.69000000000005" y="-114.25" width="50" height="50" as="geometry">
            <mxPoint x="-310.5019847124504" y="388.7750000000001" as="sourcePoint" />
            <mxPoint x="-288.55465931974277" y="321.9905788759918" as="targetPoint" />
          </mxGeometry>
        </mxCell>
        <mxCell id="P3mDU5Xm8J3g0fUVJNvG-30" value="max volume level" style="ellipse;whiteSpace=wrap;html=1;strokeWidth=1;" parent="1" vertex="1">
          <mxGeometry x="-642.79" y="294.75" width="120.36" height="28" as="geometry" />
        </mxCell>
        <mxCell id="P3mDU5Xm8J3g0fUVJNvG-31" value="" style="endArrow=none;html=1;exitX=0;exitY=0.5;exitDx=0;exitDy=0;" parent="1" source="P3mDU5Xm8J3g0fUVJNvG-27" target="P3mDU5Xm8J3g0fUVJNvG-30" edge="1">
          <mxGeometry x="-481.69000000000005" y="-114.25" width="50" height="50" as="geometry">
            <mxPoint x="-437.618587416393" y="353.2558833710016" as="sourcePoint" />
            <mxPoint x="-483.4489356184463" y="303.75" as="targetPoint" />
          </mxGeometry>
        </mxCell>
        <mxCell id="P3mDU5Xm8J3g0fUVJNvG-35" value="Answering Machine" style="rounded=0;whiteSpace=wrap;html=1;fillColor=#f5f5f5;strokeColor=#666666;fontColor=#333333;" parent="1" vertex="1">
          <mxGeometry x="-535.2210215356863" y="413" width="105.5361371067764" height="57.00000000000001" as="geometry" />
        </mxCell>
        <mxCell id="P3mDU5Xm8J3g0fUVJNvG-36" value="Message Duration" style="ellipse;whiteSpace=wrap;html=1;strokeWidth=1;" parent="1" vertex="1">
          <mxGeometry x="-522.4299999999998" y="507" width="79.96" height="28" as="geometry" />
        </mxCell>
        <mxCell id="P3mDU5Xm8J3g0fUVJNvG-37" value="Fax" style="rounded=0;whiteSpace=wrap;html=1;fillColor=#f5f5f5;strokeColor=#666666;fontColor=#333333;" parent="1" vertex="1">
          <mxGeometry x="-387.81102153568645" y="413" width="105.5361371067764" height="57.00000000000001" as="geometry" />
        </mxCell>
        <mxCell id="P3mDU5Xm8J3g0fUVJNvG-38" value="# pages" style="ellipse;whiteSpace=wrap;html=1;strokeWidth=1;" parent="1" vertex="1">
          <mxGeometry x="-370.22000000000025" y="507" width="70.36" height="28" as="geometry" />
        </mxCell>
        <mxCell id="P3mDU5Xm8J3g0fUVJNvG-39" value="Telephone" style="rounded=0;whiteSpace=wrap;html=1;fillColor=#f5f5f5;strokeColor=#666666;fontColor=#333333;" parent="1" vertex="1">
          <mxGeometry x="-259.29102153568647" y="413" width="105.5361371067764" height="57.00000000000001" as="geometry" />
        </mxCell>
        <mxCell id="P3mDU5Xm8J3g0fUVJNvG-40" value="Key Size" style="ellipse;whiteSpace=wrap;html=1;strokeWidth=1;" parent="1" vertex="1">
          <mxGeometry x="-242.5300000000002" y="507" width="70.36" height="28" as="geometry" />
        </mxCell>
        <mxCell id="P3mDU5Xm8J3g0fUVJNvG-41" value="" style="endArrow=none;html=1;exitX=0.5;exitY=1;exitDx=0;exitDy=0;entryX=0.5;entryY=0;entryDx=0;entryDy=0;" parent="1" source="P3mDU5Xm8J3g0fUVJNvG-39" target="P3mDU5Xm8J3g0fUVJNvG-40" edge="1">
          <mxGeometry x="-246.97000000000025" y="-77" width="50" height="50" as="geometry">
            <mxPoint x="-212.23102153568652" y="312.5" as="sourcePoint" />
            <mxPoint x="-250.18981476043837" y="334.4578636292392" as="targetPoint" />
          </mxGeometry>
        </mxCell>
        <mxCell id="P3mDU5Xm8J3g0fUVJNvG-42" value="" style="endArrow=none;html=1;exitX=1;exitY=1;exitDx=0;exitDy=0;entryX=0.5;entryY=0;entryDx=0;entryDy=0;" parent="1" source="P3mDU5Xm8J3g0fUVJNvG-45" target="P3mDU5Xm8J3g0fUVJNvG-37" edge="1">
          <mxGeometry width="50" height="50" relative="1" as="geometry">
            <mxPoint x="-391.3933982822018" y="362.74660171779806" as="sourcePoint" />
            <mxPoint x="-330" y="417" as="targetPoint" />
          </mxGeometry>
        </mxCell>
        <mxCell id="P3mDU5Xm8J3g0fUVJNvG-43" value="&lt;font style=&quot;font-size: 18px&quot;&gt;U&lt;/font&gt;" style="text;html=1;strokeColor=none;fillColor=none;align=center;verticalAlign=middle;whiteSpace=wrap;rounded=0;rotation=-45;" parent="1" vertex="1">
          <mxGeometry x="-376.94000000000005" y="381.1399999999999" width="40" height="20" as="geometry" />
        </mxCell>
        <mxCell id="P3mDU5Xm8J3g0fUVJNvG-44" value="" style="endArrow=none;html=1;exitX=0.5;exitY=1;exitDx=0;exitDy=0;entryX=0.5;entryY=0;entryDx=0;entryDy=0;startArrow=none;" parent="1" source="P3mDU5Xm8J3g0fUVJNvG-35" target="P3mDU5Xm8J3g0fUVJNvG-36" edge="1">
          <mxGeometry width="50" height="50" relative="1" as="geometry">
            <mxPoint x="-446.9358823741618" y="396.34585786437606" as="sourcePoint" />
            <mxPoint x="-481.0029529822982" y="442.5" as="targetPoint" />
          </mxGeometry>
        </mxCell>
        <mxCell id="P3mDU5Xm8J3g0fUVJNvG-45" value="&lt;font style=&quot;font-size: 24px&quot;&gt;o&lt;/font&gt;" style="ellipse;whiteSpace=wrap;html=1;aspect=fixed;" parent="1" vertex="1">
          <mxGeometry x="-413.87000000000035" y="336" width="36.75" height="36.75" as="geometry" />
        </mxCell>
        <mxCell id="P3mDU5Xm8J3g0fUVJNvG-46" value="" style="endArrow=none;html=1;exitX=0;exitY=1;exitDx=0;exitDy=0;entryX=0.5;entryY=0;entryDx=0;entryDy=0;" parent="1" source="P3mDU5Xm8J3g0fUVJNvG-45" target="P3mDU5Xm8J3g0fUVJNvG-35" edge="1">
          <mxGeometry width="50" height="50" relative="1" as="geometry">
            <mxPoint x="-408.4880871042924" y="367.3680871042923" as="sourcePoint" />
            <mxPoint x="-422.48412988073096" y="388.21412988073075" as="targetPoint" />
          </mxGeometry>
        </mxCell>
        <mxCell id="P3mDU5Xm8J3g0fUVJNvG-47" value="" style="endArrow=none;html=1;exitX=0.5;exitY=1;exitDx=0;exitDy=0;startArrow=none;entryX=0.5;entryY=0;entryDx=0;entryDy=0;" parent="1" source="P3mDU5Xm8J3g0fUVJNvG-37" target="P3mDU5Xm8J3g0fUVJNvG-38" edge="1">
          <mxGeometry width="50" height="50" relative="1" as="geometry">
            <mxPoint x="-472.45295298229803" y="479.9999999999998" as="sourcePoint" />
            <mxPoint x="-390" y="487" as="targetPoint" />
          </mxGeometry>
        </mxCell>
        <mxCell id="P3mDU5Xm8J3g0fUVJNvG-48" value="" style="endArrow=none;html=1;exitX=1;exitY=0.5;exitDx=0;exitDy=0;entryX=0.5;entryY=0;entryDx=0;entryDy=0;" parent="1" source="P3mDU5Xm8J3g0fUVJNvG-45" target="P3mDU5Xm8J3g0fUVJNvG-39" edge="1">
          <mxGeometry width="50" height="50" relative="1" as="geometry">
            <mxPoint x="-372.5019128957074" y="377.3680871042927" as="sourcePoint" />
            <mxPoint x="-325.0429529822982" y="423" as="targetPoint" />
          </mxGeometry>
        </mxCell>
        <mxCell id="P3mDU5Xm8J3g0fUVJNvG-49" value="&lt;font style=&quot;font-size: 18px&quot;&gt;U&lt;/font&gt;" style="text;html=1;strokeColor=none;fillColor=none;align=center;verticalAlign=middle;whiteSpace=wrap;rounded=0;rotation=-60;" parent="1" vertex="1">
          <mxGeometry x="-315.94000000000005" y="373.1399999999999" width="40" height="20" as="geometry" />
        </mxCell>
        <mxCell id="P3mDU5Xm8J3g0fUVJNvG-50" value="&lt;font style=&quot;font-size: 18px&quot;&gt;U&lt;/font&gt;" style="text;html=1;strokeColor=none;fillColor=none;align=center;verticalAlign=middle;whiteSpace=wrap;rounded=0;rotation=45;" parent="1" vertex="1">
          <mxGeometry x="-462.80999999999995" y="381.1399999999999" width="37" height="20" as="geometry" />
        </mxCell>
        <mxCell id="bLbdUCJRhcCoR_garhqX-1" value="STUDENT" style="rounded=0;whiteSpace=wrap;html=1;fillColor=#f5f5f5;strokeColor=#666666;fontColor=#333333;" parent="1" vertex="1">
          <mxGeometry x="-10" y="280" width="120" height="60" as="geometry" />
        </mxCell>
      </root>
    </mxGraphModel>
  </diagram>
</mxfile>
